<svg width="207" height="62" viewBox="0 0 207 62" fill="none" xmlns="http://www.w3.org/2000/svg">
<path d="M14.9736 44.4991C13.0009 44.4991 11.1708 44.1901 9.48327 43.5722C7.79577 42.9305 6.33406 42.0273 5.09815 40.8627C3.886 39.6981 2.9353 38.3314 2.24604 36.7628C1.55678 35.1703 1.21215 33.4234 1.21215 31.522C1.21215 29.6206 1.55678 27.8856 2.24604 26.3169C2.9353 24.7245 3.89789 23.346 5.1338 22.1813C6.36972 21.0167 7.83142 20.1255 9.51892 19.5075C11.2302 18.8658 13.0959 18.5449 15.1162 18.5449C17.4692 18.5449 19.5726 18.9371 21.4265 19.7214C23.2804 20.5057 24.8134 21.6347 26.0255 23.1083L21.5334 27.1725C20.6778 26.2456 19.7509 25.5563 18.7526 25.1048C17.7782 24.6294 16.6849 24.3917 15.4727 24.3917C14.4032 24.3917 13.4287 24.5581 12.5493 24.8909C11.6699 25.2236 10.9212 25.7108 10.3033 26.3526C9.68529 26.9705 9.19806 27.7192 8.84155 28.5986C8.5088 29.4542 8.34243 30.4287 8.34243 31.522C8.34243 32.5678 8.5088 33.5304 8.84155 34.4098C9.19806 35.2892 9.68529 36.0497 10.3033 36.6915C10.9212 37.3094 11.658 37.7967 12.5136 38.1532C13.393 38.4859 14.3556 38.6523 15.4014 38.6523C16.4472 38.6523 17.4692 38.4859 18.4674 38.1532C19.4657 37.7967 20.4758 37.2025 21.4978 36.3706L25.4551 41.3261C24.029 42.3482 22.3772 43.1325 20.4996 43.6791C18.6219 44.2258 16.7799 44.4991 14.9736 44.4991ZM19.2161 40.3992V30.9872H25.4551V41.3261L19.2161 40.3992ZM32.2834 44V24.6769H38.7364V30.3099L37.7738 28.7056C38.3442 27.2557 39.2711 26.1743 40.5546 25.4613C41.838 24.7245 43.3948 24.3561 45.2249 24.3561V30.4525C44.9159 30.4049 44.6426 30.3812 44.4049 30.3812C44.191 30.3574 43.9533 30.3455 43.6919 30.3455C42.3134 30.3455 41.1963 30.7258 40.3407 31.4864C39.485 32.2232 39.0572 33.4353 39.0572 35.1228V44H32.2834ZM61.3457 44V40.3992L60.8823 39.5079V32.8768C60.8823 31.8072 60.5495 30.9872 59.884 30.4168C59.2423 29.8226 58.2084 29.5255 56.7824 29.5255C55.8554 29.5255 54.9166 29.68 53.9659 29.989C53.0152 30.2742 52.2071 30.6783 51.5416 31.2011L49.2599 26.6021C50.3532 25.8891 51.6604 25.3424 53.1816 24.9622C54.7265 24.5581 56.2595 24.3561 57.7806 24.3561C60.9179 24.3561 63.3422 25.081 65.0535 26.5308C66.7885 27.9569 67.656 30.2029 67.656 33.2689V44H61.3457ZM55.6415 44.3209C54.0966 44.3209 52.7894 44.0594 51.7199 43.5365C50.6503 43.0136 49.8303 42.3006 49.2599 41.3974C48.7133 40.4943 48.4399 39.4842 48.4399 38.3671C48.4399 37.1787 48.737 36.1567 49.3312 35.3011C49.9492 34.4217 50.888 33.7562 52.1477 33.3046C53.4074 32.8292 55.0354 32.5916 57.0319 32.5916H61.5953V36.121H57.9589C56.8655 36.121 56.0931 36.2993 55.6415 36.6558C55.2137 37.0123 54.9998 37.4877 54.9998 38.0819C54.9998 38.6761 55.2256 39.1514 55.6772 39.5079C56.1288 39.8644 56.7467 40.0427 57.531 40.0427C58.2678 40.0427 58.9333 39.8644 59.5275 39.5079C60.1455 39.1276 60.5971 38.5572 60.8823 37.7967L61.8092 40.2923C61.4527 41.6232 60.7515 42.6334 59.7058 43.3226C58.6838 43.9881 57.329 44.3209 55.6415 44.3209ZM86.7627 44.3209C85.1227 44.3209 83.7204 43.9643 82.5558 43.2513C81.3912 42.5145 80.4999 41.4212 79.8819 39.9714C79.2878 38.4978 78.9907 36.6202 78.9907 34.3385C78.9907 32.033 79.2759 30.1554 79.8463 28.7056C80.4167 27.232 81.2724 26.1387 82.4132 25.4256C83.5778 24.7126 85.0276 24.3561 86.7627 24.3561C88.5215 24.3561 90.1139 24.772 91.54 25.6039C92.9898 26.412 94.1306 27.5647 94.9625 29.0621C95.8181 30.5357 96.2459 32.2945 96.2459 34.3385C96.2459 36.3825 95.8181 38.1532 94.9625 39.6505C94.1306 41.1479 92.9898 42.3006 91.54 43.1087C90.1139 43.9168 88.5215 44.3209 86.7627 44.3209ZM74.6055 50.9164V24.6769H81.0584V27.9569L81.0228 34.3385L81.3793 40.7557V50.9164H74.6055ZM85.3366 38.9375C86.0972 38.9375 86.7746 38.7592 87.3687 38.4027C87.9867 38.0462 88.4739 37.5233 88.8304 36.8341C89.2107 36.1448 89.4009 35.3129 89.4009 34.3385C89.4009 33.364 89.2107 32.5321 88.8304 31.8429C88.4739 31.1536 87.9867 30.6307 87.3687 30.2742C86.7746 29.9177 86.0972 29.7394 85.3366 29.7394C84.576 29.7394 83.8868 29.9177 83.2688 30.2742C82.6746 30.6307 82.1874 31.1536 81.8071 31.8429C81.4506 32.5321 81.2724 33.364 81.2724 34.3385C81.2724 35.3129 81.4506 36.1448 81.8071 36.8341C82.1874 37.5233 82.6746 38.0462 83.2688 38.4027C83.8868 38.7592 84.576 38.9375 85.3366 38.9375ZM114.653 24.3561C116.151 24.3561 117.505 24.6651 118.717 25.283C119.93 25.8772 120.88 26.8041 121.57 28.0638C122.283 29.3235 122.639 30.9516 122.639 32.9481V44H115.865V34.0533C115.865 32.6747 115.58 31.6765 115.01 31.0585C114.463 30.4168 113.691 30.096 112.692 30.096C111.979 30.096 111.326 30.2623 110.732 30.5951C110.137 30.9041 109.674 31.3913 109.341 32.0568C109.008 32.7223 108.842 33.5898 108.842 34.6593V44H102.068V17.5467H108.842V30.1673L107.273 28.5629C108.01 27.1607 109.02 26.1149 110.304 25.4256C111.587 24.7126 113.037 24.3561 114.653 24.3561Z" fill="#5C6BF2"/>
<path d="M163.274 44L174.291 19.044H181.243L192.295 44H184.95L176.323 22.5022H179.104L170.476 44H163.274ZM169.3 39.1514L171.118 33.9463H183.311L185.129 39.1514H169.3ZM196.97 44V19.044H204.029V44H196.97Z" fill="#5C6BF2"/>
<path d="M131.743 44.0071C131.743 44.7762 132.366 45.3997 133.136 45.3997C133.905 45.3997 134.528 44.7762 134.528 44.0071H131.743ZM133.136 20.6108L134.132 19.6383L131.743 17.1891V20.6108H133.136ZM144.277 32.0304L143.28 33.0029L144.277 34.0247L145.274 33.0029L144.277 32.0304ZM155.418 20.6108H156.81V17.1891L154.421 19.6383L155.418 20.6108ZM134.528 44.0071V20.6108H131.743V44.0071H134.528ZM132.139 21.5833L143.28 33.0029L145.274 31.0579L134.132 19.6383L132.139 21.5833ZM145.274 33.0029L156.415 21.5833L154.421 19.6383L143.28 31.0579L145.274 33.0029ZM154.025 20.6108V44.0071H156.81V20.6108H154.025Z" fill="#6271FD"/>
<circle cx="133.136" cy="42.336" r="3.34232" fill="#5263FF"/>
<circle cx="133.136" cy="20.6111" r="3.34232" fill="#5263FF"/>
<circle cx="144.277" cy="31.1949" r="3.34232" fill="#5263FF"/>
<circle cx="155.418" cy="20.6111" r="3.34232" fill="#5263FF"/>
<circle cx="155.418" cy="42.336" r="3.34232" fill="#5263FF"/>
</svg>
